Coordinates
version=1
nRows=17
nColumns=36
inDegrees=yes

Units are S.I. units (second, meters, Newtons, ...)
If the header above contains a line with 'inDegrees', this indicates whether rotational values are in degrees (yes) or radians (no).

endheader
time	pelvis_tilt	pelvis_list	pelvis_rotation	pelvis_tx	pelvis_ty	pelvis_tz	hip_flexion_r	hip_adduction_r	hip_rotation_r	knee_angle_r	knee_angle_r_beta	ankle_angle_r	subtalar_angle_r	mtp_angle_r	hip_flexion_l	hip_adduction_l	hip_rotation_l	knee_angle_l	knee_angle_l_beta	ankle_angle_l	subtalar_angle_l	mtp_angle_l	lumbar_extension	lumbar_bending	lumbar_rotation	arm_flex_r	arm_add_r	arm_rot_r	elbow_flex_r	pro_sup_r	arm_flex_l	arm_add_l	arm_rot_l	elbow_flex_l	pro_sup_l
      0.00000000	      3.95466703	     -1.66108051	      4.36610640	     -1.05047673	      1.30041000	     -0.07858770	     -6.24203987	      2.27052144	     -3.17658686	      3.99532618	      0.06973160	     -2.52285250	    -15.74541521	     -5.37436119	     -4.82148106	     -2.77573473	      0.30266600	      5.95062407	      0.10385798	      5.61780110	     -5.08771175	     -5.37436119	    -12.55682400	      4.12329834	     -0.59069806	      5.32378664	     -7.44017431	     17.97235153	     23.83303194	     73.29294390	      4.12567915	     -5.95959286	     23.23573979	     23.66962186	     64.74007182
      0.00416670	      3.10912420	     -0.56079820	      4.53365855	     -1.05048656	      1.29989122	     -0.07814558	     -5.16936486	      1.39941828	     -3.68542534	      4.27697724	      0.07464733	      0.62091998	    -12.89638400	     -6.19547256	     -4.06461947	     -1.21897286	     -0.09212485	      5.50321420	      0.09604921	      5.18149562	     -2.91122907	     -6.19547256	    -11.64798672	      2.80873798	     -0.69004291	      4.57312137	     -6.00232066	     10.94468218	     24.15269843	     76.27660697	      3.74144681	     -5.31771907	     18.64175213	     23.70842337	     67.97221604
      0.00833330	      2.42990408	      0.23599452	      4.18247392	     -1.04946894	      1.29832686	     -0.07703854	     -4.70903792	      0.60244735	     -5.11173314	      3.76631372	      0.06573458	      1.43870254	    -11.62830118	     -6.29938896	     -3.79033743	     -0.40476678	     -1.71626857	      4.92432447	      0.08594568	      5.47750881	     -0.43597601	     -6.29938896	    -10.76776771	      1.51895417	     -0.48065973	      4.21102772	     -5.04652719	      8.49209092	     24.20525679	     75.51772836	      3.63293290	     -5.54312019	     17.62075871	     23.81962735	     67.87703946
      0.01250000	      3.03755388	      0.66997261	      4.11851109	     -1.04971572	      1.30189847	     -0.07675731	     -5.59506751	      0.15198816	     -5.81165053	      3.29261925	      0.05746705	      1.92575913	    -10.51322599	     -6.42267536	     -5.07042658	      0.09195671	     -2.08691563	      3.93038975	      0.06859824	      5.05345137	     -0.04192009	     -6.42267536	    -11.69766081	      0.88019115	     -0.41955318	      4.05738985	     -4.59382051	      7.13022045	     24.75904607	     74.43891854	      3.82998761	     -5.87752181	     17.19022227	     24.07579597	     67.59691829
      0.01666670	      3.37325617	      0.85585355	      4.04985226	     -1.04978262	      1.30148995	     -0.07607447	     -6.15923348	      0.02039858	     -6.27521135	      2.89189024	      0.05047301	      2.23397727	     -9.91320698	     -6.49918840	     -5.89592195	      0.29028267	     -2.55917299	      3.14477258	      0.05488664	      4.75388353	      0.59561873	     -6.49918840	    -12.22665655	      0.61054722	     -0.22625805	      3.91301788	     -4.38760114	      6.39797294	     25.36631872	     73.84994655	      3.98557596	     -6.08342689	     17.28634639	     24.37763261	     67.65698591
      0.02083330	      3.57396476	      0.95410438	      4.06444926	     -1.05015621	      1.30287861	     -0.07546050	     -6.49053928	     -0.01751634	     -6.43103383	      2.64904464	      0.04623455	      2.33759356	     -9.47705173	     -6.58944358	     -6.32805644	      0.37684355	     -2.83916387	      2.73891229	      0.04780304	      4.52261056	      1.05736867	     -6.58944358	    -12.55716460	      0.49854054	     -0.06607638	      3.76928917	     -4.37758162	      6.29194721	     25.92739082	     73.01480696	      4.15410567	     -6.20991346	     17.56107911	     24.78024213	     67.46571054
      0.02500000	      3.88796817	      0.98718433	      4.11975887	     -1.04974069	      1.30267097	     -0.07535564	     -6.98141813	      0.00285294	     -6.72319526	      2.37186026	      0.04139677	      2.84677570	     -8.50490870	     -6.83938649	     -6.77524888	      0.35714543	     -3.18276396	      2.50026676	      0.04363789	      4.52911847	      1.47109022	     -6.83938649	    -13.00179237	      0.48473327	      0.10119778	      3.78083770	     -4.47351090	      6.82434659	     26.19643458	     71.12110505	      4.48991526	     -6.28603829	     18.52965744	     24.80519544	     67.00032209
      0.02916670	      3.95051189	      1.00208860	      4.13793233	     -1.05027683	      1.30239536	     -0.07520343	     -7.11670424	      0.00091864	     -6.85779466	      2.26498083	      0.03953137	      2.73751565	     -8.41439683	     -6.95823561	     -6.87968829	      0.35947494	     -3.34677982	      2.39304387	      0.04176649	      4.41580858	      1.78863777	     -6.95823561	    -13.06499302	      0.50222602	      0.27244288	      3.84960014	     -4.87130585	      8.79884814	     26.28267767	     72.13545728	      4.88832218	     -6.58010973	     20.97734792	     24.57683127	     69.11905132
      0.03333330	      4.11930762	      1.00834786	      4.17895562	     -1.04991610	      1.30286896	     -0.07524072	     -7.44044254	      0.03176301	     -6.91706604	      2.01650114	      0.03519458	      2.76815950	     -8.22864930	     -7.21948195	     -7.09669459	      0.34249485	     -3.42679337	      2.26769861	      0.03957881	      4.24658444	      1.87418045	     -7.21948195	    -13.35794885	      0.52396103	      0.29388051	      3.85872529	     -4.94799256	      8.60408192	     26.49369024	     74.75241178	      4.97368976	     -6.54983821	     20.28733228	     24.69967057	     73.89822719
      0.03750000	      4.20263569	      1.00774945	      4.16649128	     -1.05089163	      1.30226086	     -0.07511359	     -7.60867892	      0.04533266	     -6.87550423	      1.83143267	      0.03196453	      2.63958274	     -8.31568797	     -7.29950266	     -7.19164436	      0.31745885	     -3.50635184	      2.16921858	      0.03786001	      4.13596241	      2.09741390	     -7.29950266	    -13.52814207	      0.54365521	      0.27525826	      3.93035462	     -5.16059604	      9.66567186	     26.69399813	     73.23970325	      5.08436099	     -6.63511485	     20.93379974	     24.79440142	     72.53896113
      0.04166670	      4.25065550	      1.00782513	      4.13198778	     -1.05135955	      1.30238662	     -0.07490284	     -7.74520678	      0.06227496	     -6.88382492	      1.64980081	      0.02879446	      2.74735389	     -8.04302051	     -7.36621555	     -7.21521585	      0.29083404	     -3.75461590	      2.11316253	      0.03688164	      4.22385331	      2.63362022	     -7.36621555	    -13.63258336	      0.55768043	      0.25415072	      4.02758873	     -5.22451559	     10.14702969	     26.74449047	     71.44293125	      5.12586833	     -6.68017167	     21.28738361	     24.79347910	     70.88274971
      0.04583330	      4.31694490	      1.02088165	      4.20182118	     -1.05125885	      1.30292407	     -0.07518359	     -7.87847767	      0.06926216	     -6.94839527	      1.52059393	      0.02653937	      2.68215610	     -8.01729022	     -7.40396268	     -7.27198033	      0.28157604	     -3.55538781	      2.03359980	      0.03549301	      3.99707582	      2.40904584	     -7.40396268	    -13.75764339	      0.57239450	      0.21051724	      4.05347957	     -5.58601171	     11.59645295	     26.92706304	     71.74419183	      5.35126340	     -6.94490238	     22.78928375	     24.77653590	     71.41562614
      0.05000000	      4.36221692	      1.01445419	      4.21188298	     -1.05076640	      1.30343220	     -0.07523458	     -8.00435950	      0.10375619	     -6.90326934	      1.39413763	      0.02433229	      2.51501435	     -8.12545636	     -7.43997197	     -7.30777151	      0.24024686	     -3.73730289	      2.00978544	      0.03507737	      3.93821060	      2.65498499	     -7.43997197	    -13.79658616	      0.59205949	      0.21199915	      4.04516840	     -5.66942619	     11.66342927	     26.88973236	     72.90158713	      5.42285717	     -7.03827493	     23.16023393	     24.66647999	     72.95370308
      0.05416670	      4.44604912	      1.00848999	      4.08895657	     -1.05147925	      1.30230121	     -0.07475302	     -8.09223869	      0.11829953	     -6.90955034	      1.35788671	      0.02369959	      2.41747105	     -8.29277847	     -7.45765345	     -7.39344150	      0.20953240	     -4.28111435	      2.02184111	      0.03528778	      4.09940104	      3.31232328	     -7.45765345	    -13.94099559	      0.60111905	      0.23941376	      4.07402572	     -5.63091591	     11.33415234	     27.03219923	     70.56759806	      5.30576269	     -7.00350223	     22.63812229	     24.82226363	     70.63986943
      0.05833330	      4.55114317	      1.00646836	      4.13513078	     -1.05182745	      1.30245571	     -0.07482254	     -8.21497853	      0.14219048	     -7.22626474	      1.31524304	      0.02295532	      2.33031837	     -8.13904318	     -7.48485292	     -7.52340942	      0.19394871	     -4.04167662	      1.95491261	      0.03411966	      3.82083465	      2.92882826	     -7.48485292	    -14.11612951	      0.64739842	      0.19729837	      4.00118165	     -5.75179475	     10.67642178	     27.27439939	     75.90106962	      5.38544681	     -7.05995568	     21.95865646	     24.78841678	     76.94615336
      0.06250000	      4.70258514	      0.99620347	      4.13424553	     -1.05154519	      1.30229172	     -0.07524228	     -8.36348540	      0.15321637	     -7.65460301	      1.32468083	      0.02312004	      2.49522122	     -7.65715574	     -7.48963448	     -7.69182084	      0.16183848	     -4.28271668	      1.93538818	      0.03377890	      3.94142687	      3.43413789	     -7.48963448	    -14.34405619	      0.68629788	      0.18241094	      4.05047022	     -5.75568385	     10.74194687	     27.35961269	     72.89719193	      5.36054180	     -7.05129781	     21.87133505	     24.99277851	     73.82711334
      0.06666670	      4.61591976	      0.98946222	      4.12292569	     -1.05283229	      1.30139084	     -0.07504294	     -8.25961815	      0.18884424	     -7.37343057	      1.30371013	      0.02275403	      2.10579884	     -8.42925456	     -7.49302576	     -7.57664743	      0.17510510	     -4.15566020	      1.87215169	      0.03267521	      3.80975433	      3.24954123	     -7.49302576	    -14.21494871	      0.68537790	      0.18422877	      4.15515617	     -6.02082322	     12.18659687	     27.26050305	     72.69465050	      5.54332553	     -7.28862740	     23.44119411	     24.74916080	     73.94590367
